HIERARCHY
ROOT Hips
{
  OFFSET -303.801 102.088 289.585
  CHANNELS 6 Xposition Yposition Zposition Zrotation Xrotation Yrotation
  JOINT ToSpine
  {
    OFFSET -2.69724 7.43032 -0.144315
    CHANNELS 3 Zrotation Xrotation Yrotation
    JOINT Spine
    {
      OFFSET -0.0310711 10.7595 1.96963
      CHANNELS 3 Zrotation Xrotation Yrotation
      JOINT Spine1
      {
        OFFSET 19.9056 3.91189 0.764692
        CHANNELS 3 Zrotation Xrotation Yrotation
        JOINT Neck
        {
          OFFSET 25.9749 7.03908 -0.130764
          CHANNELS 3 Zrotation Xrotation Yrotation
          JOINT Head
          {
            OFFSET 9.52751 0.295786 -0.907742
            CHANNELS 3 Zrotation Xrotation Yrotation
            End Site
            {
              OFFSET 16.4037 0.713936 2.7358
            }
          }
        }
        JOINT LeftShoulder
        {
          OFFSET 17.7449 4.33886 11.7777
          CHANNELS 3 Zrotation Xrotation Yrotation
          JOINT LeftArm
          {
            OFFSET 0.911315 1.27913 9.80584
            CHANNELS 3 Zrotation Xrotation Yrotation
            JOINT LeftForeArm
            {
              OFFSET 28.6126 1.18197 -3.53199
              CHANNELS 3 Zrotation Xrotation Yrotation
              JOINT LeftHand
              {
                OFFSET 27.5088 0.0218783 0.327423
                CHANNELS 3 Zrotation Xrotation Yrotation
                End Site
                {
                  OFFSET 18.6038 -0.000155887 0.382096
                }
              }
            }
          }
        }
        JOINT RightShoulder
        {
          OFFSET 17.1009 2.89543 -12.2328
          CHANNELS 3 Zrotation Xrotation Yrotation
          JOINT RightArm
          {
            OFFSET 1.4228 0.178766 -10.211
            CHANNELS 3 Zrotation Xrotation Yrotation
            JOINT RightForeArm
            {
              OFFSET 28.733 1.87905 2.64907
              CHANNELS 3 Zrotation Xrotation Yrotation
              JOINT RightHand
              {
                OFFSET 27.4588 0.290562 -0.101845
                CHANNELS 3 Zrotation Xrotation Yrotation
                End Site
                {
                  OFFSET 17.8396 -0.255518 -0.000602873
                }
              }
            }
          }
        }
      }
    }
  }
  JOINT LeftUpLeg
  {
    OFFSET -5.61296 -2.22332 -10.2353
    CHANNELS 3 Zrotation Xrotation Yrotation
    JOINT LeftLeg
    {
      OFFSET 2.56703 -44.7417 -7.93097
      CHANNELS 3 Zrotation Xrotation Yrotation
      JOINT LeftFoot
      {
        OFFSET 3.16933 -46.5642 -3.96578
        CHANNELS 3 Zrotation Xrotation Yrotation
        JOINT LeftToeBase
        {
          OFFSET 0.346054 -6.02161 12.8035
          CHANNELS 3 Zrotation Xrotation Yrotation
          End Site
          {
            OFFSET 0.134235 -1.35082 5.13018
          }
        }
      }
    }
  }
  JOINT RightUpLeg
  {
    OFFSET -5.7928 -1.72406 10.6446
    CHANNELS 3 Zrotation Xrotation Yrotation
    JOINT RightLeg
    {
      OFFSET -2.57161 -44.7178 -7.85259
      CHANNELS 3 Zrotation Xrotation Yrotation
      JOINT RightFoot
      {
        OFFSET -3.10148 -46.5936 -4.03391
        CHANNELS 3 Zrotation Xrotation Yrotation
        JOINT RightToeBase
        {
          OFFSET -0.0828122 -6.13587 12.8035
          CHANNELS 3 Zrotation Xrotation Yrotation
          End Site
          {
            OFFSET -0.131328 -1.35082 5.13018
          }
        }
      }
    }
  }
}
MOTION
Frames:	8
Frame Time:	0.0333333
25.8828 104.34 34.108 75.6697 10.5977 8.45642 -70.1915 0 88.8779 80.5938 73.4693 11.3545 7.26625 22.7945 3.10351 -124.493 21.7531 167.96 -155.8 62.0953 176.211 2.38395 -4.88749 -39.436 -102.907 39.0912 -85.2881 -16.6204 45.7627 10.7337 8.2975 0.0280347 1.96808 -0.285846 0.478888 57.2643 -59.3254 -18.6335 102.226 -0.101449 6.50529 24.7408 11.984 -0.383067 -4.21571 -49.3544 -2.79328 66.2075 4.79442 26.0836 -15.9476 6.19006 4.60012 -0.774407 -7.86456 -19.2616 0.611788 -59.3996 12.1199 86.3584 -2.72616 30.4652 17.8595 -8.6029 -7.30755 1.19026 -0.810658 -4.7208 -0.572105 
26.6036 104.49 33.1298 75.3594 8.60496 6.80643 -70.1915 0 88.8779 79.7269 73.0686 8.78267 6.21 22.0397 4.37322 -123.8 22.9431 166.081 -157.086 64.1092 178.471 2.33927 -4.8672 -38.3998 -103.766 38.3934 -86.8745 -17.1719 50.8994 11.8435 8.11279 -0.0548829 0.850069 -0.216687 0.304934 57.7545 -60.8404 -20.039 101.018 0.249179 5.70369 24.0066 11.5207 -0.330211 -3.82691 -49.7097 -3.52506 68.9962 5.30377 25.5957 -15.6951 6.49627 4.82669 -0.819775 -8.22328 -20.0505 0.352248 -58.8958 11.3151 89.2036 -2.79644 31.7275 16.8534 -8.48021 -7.20136 1.18335 -1.15318 -6.60863 -0.729805 
27.1082 104.675 32.1428 74.8747 5.90786 5.39183 -70.1915 0 88.8779 79.7085 72.6674 6.93059 5.64011 21.4935 4.4177 -124.466 24.1399 165.204 -159.012 65.7596 -178.546 2.20121 -5.30307 -37.8303 -103.672 37.3089 -88.3024 -17.255 51.1453 11.9037 8.37475 -0.0776414 0.577409 -0.131384 0.110504 57.6174 -62.1781 -21.3829 100.087 0.00642215 5.92406 23.4914 11.5679 -0.237298 -2.84247 -49.2035 -2.63801 76.1712 6.26426 24.9849 -19.7879 6.44886 4.54964 -0.816544 -7.90349 -19.2811 0.308979 -58.2912 11.4879 94.9545 -1.63823 32.6682 12.9193 -8.66778 -6.91386 1.19561 -1.3682 -7.88732 -1.14978 
27.2533 104.832 31.1774 74.4098 2.41017 3.91099 -70.1915 0 88.8779 81.3841 72.529 3.67774 4.75147 21.1063 4.73366 -125.942 25.7085 164.531 -161.285 67.5633 -176.214 2.14415 -5.50838 -37.7134 -101.611 36.0407 -90.7191 -17.5464 47.4632 11.0454 13.9364 -0.0849768 0.967466 -0.158028 0.181878 57.1759 -62.6468 -22.346 99.4911 -0.155215 5.47263 22.7299 12.3465 -0.0994803 -1.33415 -48.9206 -1.76137 81.6753 6.78749 24.3918 -21.5348 6.55542 4.83577 -0.829198 -7.98379 -19.48 0.342504 -56.7374 11.6492 101.259 1.12264 34.822 7.85275 -8.43543 -6.38118 1.18229 -1.52943 -8.80021 -1.43165 
27.4409 104.989 30.1683 73.9171 -1.38359 2.24055 -70.1915 0 88.8779 80.6658 72.1138 3.5269 5.07774 20.7832 3.96651 -127.212 27.1931 164.911 -166.521 69.099 -170.376 2.04597 -5.77248 -36.9221 -100.888 35.2416 -92.3929 -18.2383 49.6492 11.5081 17.2107 0.232533 3.16803 -0.247091 0.379009 57.6106 -63.0813 -21.6902 99.3128 -1.20683 4.67595 20.9488 13.403 0.0795646 0.346021 -48.768 -0.691299 86.9964 6.70215 23.9573 -22.6438 6.74355 4.7571 -0.860676 -7.79127 -19.0509 0.463308 -54.2026 11.0014 102.647 2.12197 37.9976 7.78076 -7.88445 -6.38622 1.1457 -1.37236 -7.79634 -0.8324 
27.5956 105.095 29.1565 73.7669 -5.29503 0.509138 -70.1915 0 88.8779 81.5493 71.9153 0.993515 4.74866 20.2139 4.74257 -128.178 28.4147 166.086 -171.158 70.0115 -164.836 2.00354 -5.90245 -36.6484 -100.826 34.387 -92.9841 -18.0805 48.9889 11.3606 19.9905 0.410218 3.95819 -0.318261 0.563667 56.9756 -64.5634 -21.4947 99.0427 -1.65802 1.30874 19.121 13.4424 0.143081 0.909317 -49.167 0.121185 90.937 6.25395 23.7427 -21.9726 6.93884 4.45952 -0.895634 -7.56883 -18.4675 0.228878 -51.3019 9.57292 101.006 2.59732 41.7853 9.70312 -7.13636 -5.76337 1.09017 -1.40702 -7.18232 1.21923 
27.6893 105.26 28.2235 73.5079 -9.35423 -1.13655 -70.1915 0 88.8779 81.6407 71.6879 -0.730263 4.42994 19.693 5.56422 -127.724 28.443 164.706 -167.472 70.3644 -166.652 1.85622 -6.30711 -35.2311 -100.949 34.3124 -92.8822 -17.629 47.3744 11.0245 21.993 0.702766 5.23507 -0.327137 0.579435 57.138 -63.4823 -21.0417 99.2582 -1.88668 2.46728 19.3319 13.5401 -0.289854 -2.92514 -49.9344 0.809085 93.323 5.37122 23.0384 -19.7301 7.1729 4.85908 -0.928805 -7.64485 -18.6229 0.116498 -47.9094 8.20587 99.0298 3.20506 45.9996 11.4928 -6.66714 -5.7222 1.0559 -0.816686 -2.51597 3.0411 
27.8919 105.464 27.2881 73.5016 -13.3048 -2.08023 -70.1915 0 88.8779 82.2776 71.3338 -1.73874 5.19509 19.1521 5.85163 -129.495 29.0832 165.277 -169.469 70.752 -164.587 1.72045 -6.82839 -34.7026 -101.763 33.8642 -92.4638 -16.7811 44.5102 10.4993 23.2735 0.544627 4.28319 -0.254642 0.419254 56.7799 -65.4501 -20.5153 99.1799 -2.04866 -0.455098 18.1072 12.6867 -0.299643 -3.20067 -51.0131 1.71754 94.6662 4.56006 22.5332 -16.9114 7.36646 4.84258 -0.960269 -7.63042 -18.5401 -0.101709 -45.3049 6.74962 95.6245 3.70711 49.0217 12.6163 -6.1256 -3.93131 0.984254 -0.775399 -0.188244 5.38322 
